<svg xmlns="http://www.w3.org/2000/svg" viewBox="0 0 800 600">
  <defs>
    <linearGradient id="bg1" x1="0%" y1="0%" x2="100%" y2="100%">
      <stop offset="0%" style="stop-color:#8B4513;stop-opacity:0.3" />
      <stop offset="100%" style="stop-color:#D2691E;stop-opacity:0.5" />
    </linearGradient>
    <radialGradient id="puppy" cx="50%" cy="50%" r="50%">
      <stop offset="0%" style="stop-color:#F4A460;stop-opacity:1" />
      <stop offset="70%" style="stop-color:#DEB887;stop-opacity:1" />
      <stop offset="100%" style="stop-color:#CD853F;stop-opacity:1" />
    </radialGradient>
  </defs>
  
  <!-- Background -->
  <rect width="800" height="600" fill="url(#bg1)"/>
  
  <!-- Puppy silhouette -->
  <g transform="translate(500, 200)">
    <!-- Head -->
    <ellipse cx="0" cy="0" rx="80" ry="70" fill="url(#puppy)" opacity="0.8"/>
    <!-- Ears -->
    <ellipse cx="-50" cy="-40" rx="25" ry="45" fill="url(#puppy)" opacity="0.7" transform="rotate(-20)"/>
    <ellipse cx="50" cy="-40" rx="25" ry="45" fill="url(#puppy)" opacity="0.7" transform="rotate(20)"/>
    <!-- Eyes -->
    <circle cx="-25" cy="-15" r="8" fill="#2F4F4F" opacity="0.9"/>
    <circle cx="25" cy="-15" r="8" fill="#2F4F4F" opacity="0.9"/>
    <!-- Nose -->
    <ellipse cx="0" cy="10" rx="8" ry="6" fill="#2F4F4F" opacity="0.9"/>
    <!-- Body -->
    <ellipse cx="0" cy="120" rx="60" ry="80" fill="url(#puppy)" opacity="0.7"/>
    <!-- Paws -->
    <circle cx="-30" cy="180" r="15" fill="url(#puppy)" opacity="0.6"/>
    <circle cx="30" cy="180" r="15" fill="url(#puppy)" opacity="0.6"/>
  </g>
  
  <!-- Decorative paw prints -->
  <g opacity="0.3">
    <g transform="translate(100, 100)">
      <circle cx="0" cy="0" r="8" fill="#8B4513"/>
      <circle cx="-10" cy="-15" r="5" fill="#8B4513"/>
      <circle cx="10" cy="-15" r="5" fill="#8B4513"/>
      <circle cx="-8" cy="-25" r="4" fill="#8B4513"/>
      <circle cx="8" cy="-25" r="4" fill="#8B4513"/>
    </g>
    <g transform="translate(150, 450)">
      <circle cx="0" cy="0" r="6" fill="#8B4513"/>
      <circle cx="-8" cy="-12" r="4" fill="#8B4513"/>
      <circle cx="8" cy="-12" r="4" fill="#8B4513"/>
      <circle cx="-6" cy="-20" r="3" fill="#8B4513"/>
      <circle cx="6" cy="-20" r="3" fill="#8B4513"/>
    </g>
  </g>
</svg>