<svg xmlns="http://www.w3.org/2000/svg" viewBox="0 0 800 600">
  <defs>
    <linearGradient id="bg3" x1="0%" y1="0%" x2="100%" y2="100%">
      <stop offset="0%" style="stop-color:#FFE4B5;stop-opacity:0.4" />
      <stop offset="100%" style="stop-color:#FFA500;stop-opacity:0.6" />
    </linearGradient>
    <radialGradient id="ball" cx="50%" cy="50%" r="50%">
      <stop offset="0%" style="stop-color:#FF6347;stop-opacity:1" />
      <stop offset="70%" style="stop-color:#FF4500;stop-opacity:1" />
      <stop offset="100%" style="stop-color:#DC143C;stop-opacity:1" />
    </radialGradient>
    <radialGradient id="bone" cx="50%" cy="50%" r="50%">
      <stop offset="0%" style="stop-color:#F5F5DC;stop-opacity:1" />
      <stop offset="70%" style="stop-color:#DDBF94;stop-opacity:1" />
      <stop offset="100%" style="stop-color:#D2B48C;stop-opacity:1" />
    </radialGradient>
    <radialGradient id="mouse" cx="50%" cy="50%" r="50%">
      <stop offset="0%" style="stop-color:#C0C0C0;stop-opacity:1" />
      <stop offset="70%" style="stop-color:#A9A9A9;stop-opacity:1" />
      <stop offset="100%" style="stop-color:#808080;stop-opacity:1" />
    </radialGradient>
  </defs>
  
  <!-- Background -->
  <rect width="800" height="600" fill="url(#bg3)"/>
  
  <!-- Ball toy -->
  <g transform="translate(200, 200)">
    <circle cx="0" cy="0" r="60" fill="url(#ball)" opacity="0.8"/>
    <!-- Ball pattern -->
    <path d="M -40,-40 Q 0,-60 40,-40" stroke="#FFFFFF" stroke-width="3" fill="none" opacity="0.7"/>
    <path d="M -40,40 Q 0,60 40,40" stroke="#FFFFFF" stroke-width="3" fill="none" opacity="0.7"/>
    <path d="M -40,-40 Q -60,0 -40,40" stroke="#FFFFFF" stroke-width="3" fill="none" opacity="0.7"/>
    <path d="M 40,-40 Q 60,0 40,40" stroke="#FFFFFF" stroke-width="3" fill="none" opacity="0.7"/>
  </g>
  
  <!-- Bone toy -->
  <g transform="translate(400, 350)">
    <!-- Bone shape -->
    <ellipse cx="-30" cy="0" rx="15" ry="25" fill="url(#bone)" opacity="0.8"/>
    <ellipse cx="30" cy="0" rx="15" ry="25" fill="url(#bone)" opacity="0.8"/>
    <rect x="-30" y="-8" width="60" height="16" fill="url(#bone)" opacity="0.8"/>
    <!-- Bone details -->
    <ellipse cx="-30" cy="-12" rx="8" ry="8" fill="url(#bone)" opacity="0.9"/>
    <ellipse cx="-30" cy="12" rx="8" ry="8" fill="url(#bone)" opacity="0.9"/>
    <ellipse cx="30" cy="-12" rx="8" ry="8" fill="url(#bone)" opacity="0.9"/>
    <ellipse cx="30" cy="12" rx="8" ry="8" fill="url(#bone)" opacity="0.9"/>
  </g>
  
  <!-- Mouse toy -->
  <g transform="translate(600, 180)">
    <!-- Mouse body -->
    <ellipse cx="0" cy="0" rx="35" ry="20" fill="url(#mouse)" opacity="0.8"/>
    <!-- Mouse head -->
    <ellipse cx="25" cy="0" rx="20" ry="15" fill="url(#mouse)" opacity="0.8"/>
    <!-- Mouse ears -->
    <ellipse cx="35" cy="-10" rx="8" ry="12" fill="url(#mouse)" opacity="0.7"/>
    <ellipse cx="35" cy="10" rx="8" ry="12" fill="url(#mouse)" opacity="0.7"/>
    <!-- Mouse tail -->
    <path d="M -30 0 Q -60 -20 -70 -40" stroke="url(#mouse)" stroke-width="4" fill="none" opacity="0.7"/>
    <!-- Mouse eyes -->
    <circle cx="32" cy="-5" r="3" fill="#2F4F4F" opacity="0.9"/>
    <circle cx="32" cy="5" r="3" fill="#2F4F4F" opacity="0.9"/>
  </g>
  
  <!-- Rope toy -->
  <g transform="translate(150, 450)">
    <path d="M 0 0 Q 20 -30 50 -20 Q 80 -10 100 -30 Q 120 -50 150 -40" stroke="#8B4513" stroke-width="12" fill="none" opacity="0.7"/>
    <path d="M 5 5 Q 25 -25 55 -15 Q 85 -5 105 -25 Q 125 -45 155 -35" stroke="#D2691E" stroke-width="8" fill="none" opacity="0.7"/>
  </g>
  
  <!-- Feather toy -->
  <g transform="translate(500, 450)">
    <!-- Feather stick -->
    <rect x="0" y="0" width="4" height="80" fill="#8B4513" opacity="0.8"/>
    <!-- Feathers -->
    <ellipse cx="10" cy="10" rx="15" ry="4" fill="#FF69B4" opacity="0.7" transform="rotate(30)"/>
    <ellipse cx="15" cy="15" rx="12" ry="3" fill="#32CD32" opacity="0.7" transform="rotate(45)"/>
    <ellipse cx="8" cy="20" rx="18" ry="5" fill="#FFD700" opacity="0.7" transform="rotate(15)"/>
    <ellipse cx="12" cy="25" rx="14" ry="4" fill="#FF4500" opacity="0.7" transform="rotate(60)"/>
  </g>
  
  <!-- Decorative stars -->
  <g opacity="0.4">
    <g transform="translate(100, 100)">
      <polygon points="0,-10 3,-3 10,-3 5,2 7,9 0,5 -7,9 -5,2 -10,-3 -3,-3" fill="#FFD700"/>
    </g>
    <g transform="translate(700, 300)">
      <polygon points="0,-8 2,-2 8,-2 4,1 5,7 0,4 -5,7 -4,1 -8,-2 -2,-2" fill="#FFD700"/>
    </g>
    <g transform="translate(300, 500)">
      <polygon points="0,-6 2,-2 6,-2 3,1 4,5 0,3 -4,5 -3,1 -6,-2 -2,-2" fill="#FFD700"/>
    </g>
  </g>
</svg>